<svg class="icon" style="width: 1em; height: 1em;vertical-align: middle;fill: currentColor;overflow: hidden;" viewBox="0 0 1024 1024" version="1.1" xmlns="http://www.w3.org/2000/svg"><path d="M512 0C229.2 0 0 229.2 0 512s229.2 512 512 512 512-229.2 512-512S794.8 0 512 0z m37.2 793.6c0 14.6-11.8 26.4-26.4 26.4h-49.8c-14.6 0-26.4-11.8-26.4-26.4v-55.8c0-14.6 11.8-26.4 26.4-26.4h49.8c14.6 0 26.4 11.8 26.4 26.4v55.8z m32.2-243.4c-29.4 23.4-43 50.8-41 82.2 0 14.6-11.8 26.4-26.4 26.4h-32.2c-14.6 0-26.4-11.8-26.4-26.4v-3c0-58.6 23.4-108.6 70.4-149.6 41-35.2 60.6-71.4 58.6-108.6-2-45-24.4-68.4-67.4-70.4-37.4 0-63.8 27.4-79 82-4 14.4-19 22.4-33.2 18l-43.4-13.6c-13.6-4.2-21.2-18.4-17.6-32.2 26.6-100.4 84-150.8 172.2-151.2h2c103 6.2 157.4 61.8 163.2 167.2 1.8 66.8-31.4 126.4-99.8 179.2z"></path></svg>